# This file uses centimeters as units for non-parametric coordinates.

mtllib stairs.mtl
v 16.172761 5.807532 2.505713
v 16.172761 5.807532 5.505713
v 16.172761 6.000413 2.505713
v 16.172761 6.000413 5.505713
v 16.500001 6.000413 2.505713
v 16.500001 6.000413 5.505713
v 16.172761 5.968956 5.505713
v 16.172761 5.968956 2.505713
v 16.172761 5.839817 5.505713
v 16.172761 5.839817 2.505713
v 16.238072 5.872102 5.505713
v 16.238072 5.872102 2.505713
v 16.238072 5.936671 5.505713
v 16.238072 5.936671 2.505713
v 15.878865 5.613824 2.505713
v 15.878865 5.613824 5.505713
v 15.878865 5.807532 2.505713
v 15.878865 5.807532 5.505713
v 16.205417 5.807532 2.505713
v 16.205417 5.807532 5.505713
v 15.878865 5.775247 5.505713
v 15.878865 5.775247 2.505713
v 15.878865 5.646108 5.505713
v 15.878865 5.646108 2.505713
v 15.944177 5.678393 5.505713
v 15.944177 5.678393 2.505713
v 15.944177 5.742963 5.505713
v 15.944177 5.742963 2.505713
v 15.584970 5.420115 2.505713
v 15.584970 5.420115 5.505713
v 15.584970 5.613824 2.505713
v 15.584970 5.613824 5.505713
v 15.911521 5.613824 2.505713
v 15.911521 5.613824 5.505713
v 15.584970 5.581539 5.505713
v 15.584970 5.581539 2.505713
v 15.584970 5.452400 5.505713
v 15.584970 5.452400 2.505713
v 15.650281 5.484685 5.505713
v 15.650281 5.484685 2.505713
v 15.650281 5.549254 5.505713
v 15.650281 5.549254 2.505713
v 15.291074 5.226407 2.505713
v 15.291074 5.226407 5.505713
v 15.291074 5.420115 2.505713
v 15.291074 5.420115 5.505713
v 15.617625 5.420115 2.505713
v 15.617625 5.420115 5.505713
v 15.291074 5.387830 5.505713
v 15.291074 5.387830 2.505713
v 15.291074 5.258691 5.505713
v 15.291074 5.258691 2.505713
v 15.356385 5.290976 5.505713
v 15.356385 5.290976 2.505713
v 15.356385 5.355546 5.505713
v 15.356385 5.355546 2.505713
v 14.980851 5.032698 2.505713
v 14.980851 5.032698 5.505713
v 14.980851 5.226407 2.505713
v 14.980851 5.226407 5.505713
v 15.307403 5.226407 2.505713
v 15.307403 5.226407 5.505713
v 14.980851 5.194122 5.505713
v 14.980851 5.194122 2.505713
v 14.980851 5.064983 5.505713
v 14.980851 5.064983 2.505713
v 15.046161 5.097268 5.505713
v 15.046161 5.097268 2.505713
v 15.046161 5.161837 5.505713
v 15.046161 5.161837 2.505713
v 14.692597 4.838990 2.505713
v 14.692597 4.838990 5.505713
v 14.692597 5.032698 2.505713
v 14.692597 5.032698 5.505713
v 15.019147 5.032698 2.505713
v 15.019147 5.032698 5.505713
v 14.692597 5.000414 5.505713
v 14.692597 5.000414 2.505713
v 14.692597 4.871274 5.505713
v 14.692597 4.871274 2.505713
v 14.757907 4.903559 5.505713
v 14.757907 4.903559 2.505713
v 14.757907 4.968129 5.505713
v 14.757907 4.968129 2.505713
v 14.398702 4.645281 2.505713
v 14.398702 4.645281 5.505713
v 14.398702 4.838990 2.505713
v 14.398702 4.838990 5.505713
v 14.725251 4.838990 2.505713
v 14.725251 4.838990 5.505713
v 14.398702 4.806705 5.505713
v 14.398702 4.806705 2.505713
v 14.398702 4.677566 5.505713
v 14.398702 4.677566 2.505713
v 14.464011 4.709851 5.505713
v 14.464011 4.709851 2.505713
v 14.464011 4.774420 5.505713
v 14.464011 4.774420 2.505713
v 14.104806 4.451573 2.505713
v 14.104806 4.451573 5.505713
v 14.104806 4.645281 2.505713
v 14.104806 4.645281 5.505713
v 14.431355 4.645281 2.505713
v 14.431355 4.645281 5.505713
v 14.104806 4.612997 5.505713
v 14.104806 4.612997 2.505713
v 14.104806 4.483858 5.505713
v 14.104806 4.483858 2.505713
v 14.170115 4.516142 5.505713
v 14.170115 4.516142 2.505713
v 14.170115 4.580712 5.505713
v 14.170115 4.580712 2.505713
v 13.810910 4.257864 2.505713
v 13.810910 4.257864 5.505713
v 13.810910 4.451573 2.505713
v 13.810910 4.451573 5.505713
v 14.137460 4.451573 2.505713
v 14.137460 4.451573 5.505713
v 13.810910 4.419288 5.505713
v 13.810910 4.419288 2.505713
v 13.810910 4.290149 5.505713
v 13.810910 4.290149 2.505713
v 13.876220 4.322434 5.505713
v 13.876220 4.322434 2.505713
v 13.876220 4.387003 5.505713
v 13.876220 4.387003 2.505713
v 13.499999 3.999586 2.505713
v 13.499999 3.999586 5.505713
v 13.499999 4.257864 2.505713
v 13.499999 4.257864 5.505713
v 13.827237 4.257864 2.505713
v 13.827237 4.257864 5.505713
v 13.499999 4.225580 5.505713
v 13.499999 4.225580 2.505713
v 13.499999 4.096441 5.505713
v 13.499999 4.096441 2.505713
v 13.565997 4.128726 5.505713
v 13.565997 4.128726 2.505713
v 13.565997 4.193295 5.505713
v 13.565997 4.193295 2.505713
vt 0.375000 0.000000
vt 0.625000 0.000000
vt 0.625000 0.047551
vt 0.375000 0.047551
vt 0.375000 0.250000
vt 0.625000 0.250000
vt 0.625000 0.500000
vt 0.375000 0.500000
vt 0.375000 0.191682
vt 0.625000 0.191682
vt 0.625000 0.062016
vt 0.375000 0.062016
vt 0.625000 0.174529
vt 0.375000 0.174529
vt 0.375000 0.000000
vt 0.625000 0.000000
vt 0.625000 0.047551
vt 0.375000 0.047551
vt 0.375000 0.250000
vt 0.625000 0.250000
vt 0.625000 0.500000
vt 0.375000 0.500000
vt 0.375000 0.191682
vt 0.625000 0.191682
vt 0.625000 0.062016
vt 0.375000 0.062016
vt 0.625000 0.174529
vt 0.375000 0.174529
vt 0.375000 0.000000
vt 0.625000 0.000000
vt 0.625000 0.047551
vt 0.375000 0.047551
vt 0.375000 0.250000
vt 0.625000 0.250000
vt 0.625000 0.500000
vt 0.375000 0.500000
vt 0.375000 0.191682
vt 0.625000 0.191682
vt 0.625000 0.062016
vt 0.375000 0.062016
vt 0.625000 0.174529
vt 0.375000 0.174529
vt 0.375000 0.000000
vt 0.625000 0.000000
vt 0.625000 0.047551
vt 0.375000 0.047551
vt 0.375000 0.250000
vt 0.625000 0.250000
vt 0.625000 0.500000
vt 0.375000 0.500000
vt 0.375000 0.191682
vt 0.625000 0.191682
vt 0.625000 0.062016
vt 0.375000 0.062016
vt 0.625000 0.174529
vt 0.375000 0.174529
vt 0.375000 0.000000
vt 0.625000 0.000000
vt 0.625000 0.047551
vt 0.375000 0.047551
vt 0.375000 0.250000
vt 0.625000 0.250000
vt 0.625000 0.500000
vt 0.375000 0.500000
vt 0.375000 0.191682
vt 0.625000 0.191682
vt 0.625000 0.062016
vt 0.375000 0.062016
vt 0.625000 0.174529
vt 0.375000 0.174529
vt 0.375000 0.000000
vt 0.625000 0.000000
vt 0.625000 0.047551
vt 0.375000 0.047551
vt 0.375000 0.250000
vt 0.625000 0.250000
vt 0.625000 0.500000
vt 0.375000 0.500000
vt 0.375000 0.191682
vt 0.625000 0.191682
vt 0.625000 0.062016
vt 0.375000 0.062016
vt 0.625000 0.174529
vt 0.375000 0.174529
vt 0.375000 0.000000
vt 0.625000 0.000000
vt 0.625000 0.047551
vt 0.375000 0.047551
vt 0.375000 0.250000
vt 0.625000 0.250000
vt 0.625000 0.500000
vt 0.375000 0.500000
vt 0.375000 0.191682
vt 0.625000 0.191682
vt 0.625000 0.062016
vt 0.375000 0.062016
vt 0.625000 0.174529
vt 0.375000 0.174529
vt 0.375000 0.000000
vt 0.625000 0.000000
vt 0.625000 0.047551
vt 0.375000 0.047551
vt 0.375000 0.250000
vt 0.625000 0.250000
vt 0.625000 0.500000
vt 0.375000 0.500000
vt 0.375000 0.191682
vt 0.625000 0.191682
vt 0.625000 0.062016
vt 0.375000 0.062016
vt 0.625000 0.174529
vt 0.375000 0.174529
vt 0.375000 0.000000
vt 0.625000 0.000000
vt 0.625000 0.047551
vt 0.375000 0.047551
vt 0.375000 0.250000
vt 0.625000 0.250000
vt 0.625000 0.500000
vt 0.375000 0.500000
vt 0.375000 0.191682
vt 0.625000 0.191682
vt 0.625000 0.062016
vt 0.375000 0.062016
vt 0.625000 0.174529
vt 0.375000 0.174529
vt 0.375000 0.000000
vt 0.625000 0.000000
vt 0.625000 0.047551
vt 0.375000 0.047551
vt 0.375000 0.250000
vt 0.625000 0.250000
vt 0.625000 0.500000
vt 0.375000 0.500000
vt 0.375000 0.191682
vt 0.625000 0.191682
vt 0.625000 0.062016
vt 0.375000 0.062016
vt 0.625000 0.174529
vt 0.375000 0.174529
vn -0.951203 0.308565 0.000000
vn -0.951203 0.308565 0.000000
vn -0.951203 0.308565 0.000000
vn -0.951203 0.308565 0.000000
vn 0.000000 1.000000 0.000000
vn 0.000000 1.000000 0.000000
vn 0.000000 1.000000 0.000000
vn 0.000000 1.000000 0.000000
vn -0.999268 0.038261 0.000000
vn -0.999268 0.038261 0.000000
vn -0.999268 0.038261 0.000000
vn -0.999268 0.038261 0.000000
vn -0.947591 0.319487 0.000000
vn -0.947591 0.319487 0.000000
vn -0.947591 -0.319487 0.000000
vn -0.947591 -0.319487 0.000000
vn -0.951203 0.308565 0.000000
vn -0.951203 0.308565 0.000000
vn -0.951203 0.308565 0.000000
vn -0.951203 0.308565 0.000000
vn 0.000000 1.000000 0.000000
vn 0.000000 1.000000 0.000000
vn 0.000000 1.000000 0.000000
vn 0.000000 1.000000 0.000000
vn -0.999268 0.038261 0.000000
vn -0.999268 0.038261 0.000000
vn -0.999268 0.038261 0.000000
vn -0.999268 0.038261 0.000000
vn -0.947591 0.319487 0.000000
vn -0.947591 0.319487 0.000000
vn -0.947591 -0.319487 0.000000
vn -0.947591 -0.319487 0.000000
vn -0.951203 0.308565 0.000000
vn -0.951203 0.308565 0.000000
vn -0.951203 0.308565 0.000000
vn -0.951203 0.308565 0.000000
vn 0.000000 1.000000 0.000000
vn 0.000000 1.000000 0.000000
vn 0.000000 1.000000 0.000000
vn 0.000000 1.000000 0.000000
vn -0.999268 0.038261 0.000000
vn -0.999268 0.038261 0.000000
vn -0.999268 0.038261 0.000000
vn -0.999268 0.038261 0.000000
vn -0.947591 0.319487 0.000000
vn -0.947591 0.319487 0.000000
vn -0.947591 -0.319487 0.000000
vn -0.947591 -0.319487 0.000000
vn -0.951203 0.308565 0.000000
vn -0.951203 0.308565 0.000000
vn -0.951203 0.308565 0.000000
vn -0.951203 0.308565 0.000000
vn 0.000000 1.000000 0.000000
vn 0.000000 1.000000 0.000000
vn 0.000000 1.000000 0.000000
vn 0.000000 1.000000 0.000000
vn -0.999268 0.038261 0.000000
vn -0.999268 0.038261 0.000000
vn -0.999268 0.038261 0.000000
vn -0.999268 0.038261 0.000000
vn -0.947591 0.319487 0.000000
vn -0.947591 0.319487 0.000000
vn -0.947591 -0.319487 0.000000
vn -0.947591 -0.319487 0.000000
vn -0.951203 0.308565 0.000000
vn -0.951203 0.308565 0.000000
vn -0.951203 0.308565 0.000000
vn -0.951203 0.308565 0.000000
vn 0.000000 1.000000 0.000000
vn 0.000000 1.000000 0.000000
vn 0.000000 1.000000 0.000000
vn 0.000000 1.000000 0.000000
vn -0.999268 0.038261 0.000000
vn -0.999268 0.038261 0.000000
vn -0.999268 0.038261 0.000000
vn -0.999268 0.038261 0.000000
vn -0.947591 0.319487 0.000000
vn -0.947591 0.319487 0.000000
vn -0.947591 -0.319487 0.000000
vn -0.947591 -0.319487 0.000000
vn -0.951203 0.308565 0.000000
vn -0.951203 0.308565 0.000000
vn -0.951203 0.308565 0.000000
vn -0.951203 0.308565 0.000000
vn 0.000000 1.000000 0.000000
vn 0.000000 1.000000 0.000000
vn 0.000000 1.000000 0.000000
vn 0.000000 1.000000 0.000000
vn -0.999268 0.038261 0.000000
vn -0.999268 0.038261 0.000000
vn -0.999268 0.038261 0.000000
vn -0.999268 0.038261 0.000000
vn -0.947591 0.319487 0.000000
vn -0.947591 0.319487 0.000000
vn -0.947591 -0.319487 0.000000
vn -0.947591 -0.319487 0.000000
vn -0.951203 0.308565 0.000000
vn -0.951203 0.308565 0.000000
vn -0.951203 0.308565 0.000000
vn -0.951203 0.308565 0.000000
vn 0.000000 1.000000 0.000000
vn 0.000000 1.000000 0.000000
vn 0.000000 1.000000 0.000000
vn 0.000000 1.000000 0.000000
vn -0.999268 0.038261 0.000000
vn -0.999268 0.038261 0.000000
vn -0.999268 0.038261 0.000000
vn -0.999268 0.038261 0.000000
vn -0.947591 0.319487 0.000000
vn -0.947591 0.319487 0.000000
vn -0.947591 -0.319487 0.000000
vn -0.947591 -0.319487 0.000000
vn -0.951203 0.308565 0.000000
vn -0.951203 0.308565 0.000000
vn -0.951203 0.308565 0.000000
vn -0.951203 0.308565 0.000000
vn 0.000000 1.000000 0.000000
vn 0.000000 1.000000 0.000000
vn 0.000000 1.000000 0.000000
vn 0.000000 1.000000 0.000000
vn -0.999268 0.038261 0.000000
vn -0.999268 0.038261 0.000000
vn -0.999268 0.038261 0.000000
vn -0.999268 0.038261 0.000000
vn -0.947591 0.319487 0.000000
vn -0.947591 0.319487 0.000000
vn -0.947591 -0.319487 0.000000
vn -0.947591 -0.319487 0.000000
vn -0.951203 0.308565 0.000000
vn -0.951203 0.308565 0.000000
vn -0.951203 0.308565 0.000000
vn -0.951203 0.308565 0.000000
vn 0.000000 1.000000 0.000000
vn 0.000000 1.000000 0.000000
vn 0.000000 1.000000 0.000000
vn 0.000000 1.000000 0.000000
vn -0.999268 0.038261 0.000000
vn -0.999268 0.038261 0.000000
vn -0.999268 0.038261 0.000000
vn -0.999268 0.038261 0.000000
vn -0.947591 0.319487 0.000000
vn -0.947591 0.319487 0.000000
vn -0.947591 -0.319487 0.000000
vn -0.947591 -0.319487 0.000000
vn -0.951203 0.308565 0.000000
vn -0.951203 0.308565 0.000000
vn -0.951203 0.308565 0.000000
vn -0.951203 0.308565 0.000000
vn 0.000000 1.000000 0.000000
vn 0.000000 1.000000 0.000000
vn 0.000000 1.000000 0.000000
vn 0.000000 1.000000 0.000000
vn -0.999268 0.038261 0.000000
vn -0.999268 0.038261 0.000000
vn -0.999268 0.038261 0.000000
vn -0.999268 0.038261 0.000000
vn -0.947591 0.319487 0.000000
vn -0.947591 0.319487 0.000000
vn -0.947591 -0.319487 0.000000
vn -0.947591 -0.319487 0.000000
g polySurface54
usemtl StingrayPBS1SG
f 1/1/1 2/2/2 9/3/3 10/4/4
f 3/5/5 4/6/6 6/7/7 5/8/8
f 8/9/9 7/10/10 4/6/11 3/5/12
f 10/4/4 9/3/3 11/11/13 12/12/14
f 12/12/14 11/11/13 13/13/15 14/14/16
f 14/14/16 13/13/15 7/10/10 8/9/9
f 15/15/17 16/16/18 23/17/19 24/18/20
f 17/19/21 18/20/22 20/21/23 19/22/24
f 22/23/25 21/24/26 18/20/27 17/19/28
f 24/18/20 23/17/19 25/25/29 26/26/30
f 26/26/30 25/25/29 27/27/31 28/28/32
f 28/28/32 27/27/31 21/24/26 22/23/25
f 29/29/33 30/30/34 37/31/35 38/32/36
f 31/33/37 32/34/38 34/35/39 33/36/40
f 36/37/41 35/38/42 32/34/43 31/33/44
f 38/32/36 37/31/35 39/39/45 40/40/46
f 40/40/46 39/39/45 41/41/47 42/42/48
f 42/42/48 41/41/47 35/38/42 36/37/41
f 43/43/49 44/44/50 51/45/51 52/46/52
f 45/47/53 46/48/54 48/49/55 47/50/56
f 50/51/57 49/52/58 46/48/59 45/47/60
f 52/46/52 51/45/51 53/53/61 54/54/62
f 54/54/62 53/53/61 55/55/63 56/56/64
f 56/56/64 55/55/63 49/52/58 50/51/57
f 57/57/65 58/58/66 65/59/67 66/60/68
f 59/61/69 60/62/70 62/63/71 61/64/72
f 64/65/73 63/66/74 60/62/75 59/61/76
f 66/60/68 65/59/67 67/67/77 68/68/78
f 68/68/78 67/67/77 69/69/79 70/70/80
f 70/70/80 69/69/79 63/66/74 64/65/73
f 71/71/81 72/72/82 79/73/83 80/74/84
f 73/75/85 74/76/86 76/77/87 75/78/88
f 78/79/89 77/80/90 74/76/91 73/75/92
f 80/74/84 79/73/83 81/81/93 82/82/94
f 82/82/94 81/81/93 83/83/95 84/84/96
f 84/84/96 83/83/95 77/80/90 78/79/89
f 85/85/97 86/86/98 93/87/99 94/88/100
f 87/89/101 88/90/102 90/91/103 89/92/104
f 92/93/105 91/94/106 88/90/107 87/89/108
f 94/88/100 93/87/99 95/95/109 96/96/110
f 96/96/110 95/95/109 97/97/111 98/98/112
f 98/98/112 97/97/111 91/94/106 92/93/105
f 99/99/113 100/100/114 107/101/115 108/102/116
f 101/103/117 102/104/118 104/105/119 103/106/120
f 106/107/121 105/108/122 102/104/123 101/103/124
f 108/102/116 107/101/115 109/109/125 110/110/126
f 110/110/126 109/109/125 111/111/127 112/112/128
f 112/112/128 111/111/127 105/108/122 106/107/121
f 113/113/129 114/114/130 121/115/131 122/116/132
f 115/117/133 116/118/134 118/119/135 117/120/136
f 120/121/137 119/122/138 116/118/139 115/117/140
f 122/116/132 121/115/131 123/123/141 124/124/142
f 124/124/142 123/123/141 125/125/143 126/126/144
f 126/126/144 125/125/143 119/122/138 120/121/137
f 127/127/145 128/128/146 135/129/147 136/130/148
f 129/131/149 130/132/150 132/133/151 131/134/152
f 134/135/153 133/136/154 130/132/155 129/131/156
f 136/130/148 135/129/147 137/137/157 138/138/158
f 138/138/158 137/137/157 139/139/159 140/140/160
f 140/140/160 139/139/159 133/136/154 134/135/153
